<?xml version="1.0" encoding="utf-8"?>
<!-- Generator: Adobe Illustrator 24.1.3, SVG Export Plug-In . SVG Version: 6.00 Build 0)  -->
<svg version="1.1" id="Layer_1" xmlns="http://www.w3.org/2000/svg" xmlns:xlink="http://www.w3.org/1999/xlink" x="0px" y="0px"
	 viewBox="0 0 3000 2000" style="enable-background:new 0 0 3000 2000;" xml:space="preserve">
<style type="text/css">path:not([class]){fill:#ffffff}
	.st0{stroke:#ffffff;stroke-width:4;fill:#ffffff;}
	.st1{fill:#191918;}
	.st2{fill:#191918;stroke:#191918;stroke-width:8;stroke-miterlimit:10;}
	.st3{fill:#EAA370;}
	.st4{fill:none;stroke:#191918;stroke-width:52;stroke-miterlimit:10;}
	.st5{fill:none;stroke:#D86632;stroke-width:52;stroke-miterlimit:10;}
	.st6{fill:#D86632;stroke:#191918;stroke-width:9;stroke-miterlimit:10;}
	.st7{fill:#D86632;stroke:#191918;stroke-width:17;stroke-miterlimit:10;}
	.st8{fill:#D86632;stroke:#191918;stroke-width:15;stroke-miterlimit:10;}
	.st9{fill:none;stroke:#191918;stroke-width:19;stroke-miterlimit:10;}
	.st10{fill:#D86632;stroke:#191918;stroke-width:10;stroke-miterlimit:10;}
</style>
<g>
	<path d="M213.2,882.46h-58.34v-87.6c0-7.98-2.88-14.86-8.64-20.62c-5.76-5.76-12.63-8.64-20.62-8.64H96.34v116.86H38v-262.8h116.86
		c15.97,0,29.68,5.73,41.15,17.19c11.46,11.46,17.19,25.18,17.19,41.15v15.91c0,17.11-5.42,30.68-16.25,40.72
		c-10.84,10.04-24.87,15.06-42.09,15.06h29.09c7.98,0,14.86,2.88,20.62,8.64c5.76,5.76,8.64,12.63,8.64,20.62V882.46z
		 M154.86,707.21v-29.32c0-8-2.85-14.86-8.55-20.57c-5.71-5.71-12.61-8.57-20.7-8.57H96.34v80.92c0,3.78,3.07,6.85,6.85,6.85h22.41
		c7.98,0,14.86-2.88,20.62-8.66C151.98,722.09,154.86,715.2,154.86,707.21z"/>
	<path d="M405.22,824c0,15.96-5.78,29.69-17.33,41.2c-11.55,11.51-25.34,17.26-41.35,17.26h-58.17c-16.13,0-29.94-5.73-41.44-17.18
		c-11.5-11.45-17.25-25.22-17.25-41.29v-87.7c0-16.07,5.75-29.83,17.25-41.29c11.5-11.45,25.31-17.18,41.44-17.18h58.17
		c16.13,0,29.94,5.73,41.44,17.18c11.5,11.45,17.25,25.22,17.25,41.29V824z M346.7,824.08v-87.87c0-7.99-2.88-14.87-8.64-20.64
		c-5.76-5.77-12.63-8.65-20.62-8.65c-7.99,0-14.86,2.88-20.62,8.65c-5.76,5.77-8.64,12.65-8.64,20.64v87.87
		c0,8.11,2.88,15.02,8.64,20.73c5.76,5.71,12.63,8.56,20.62,8.56c7.98,0,14.86-2.85,20.62-8.56
		C343.82,839.1,346.7,832.19,346.7,824.08z"/>
	<path d="M552.04,882.46h-58.34c-16.13,0-29.94-5.73-41.44-17.19c-11.5-11.46-17.25-25.24-17.25-41.32V706.92h-29.26v-29.09h8.99
		c12.45,0,23.84-7.03,29.42-18.17l14.12-28.19c3.73-7.45,11.36-12.16,19.69-12.16h15.71v58.51h58.34v29.09h-58.34l-0.17,117.17
		c0,7.31,2.99,14.02,8.98,20.13c5.99,6.11,12.75,9.17,20.27,9.17h14.01c8.42,0,15.25,6.83,15.25,15.25V882.46z"/>
	<path d="M729.6,824c0,15.96-5.78,29.69-17.33,41.2s-25.34,17.26-41.35,17.26h-58.17c-16.13,0-29.94-5.73-41.44-17.18
		c-11.5-11.45-17.25-25.22-17.25-41.29v-87.7c0-16.07,5.75-29.83,17.25-41.29c11.5-11.45,25.31-17.18,41.44-17.18h58.17
		c16.13,0,29.94,5.73,41.44,17.18c11.5,11.45,17.25,25.22,17.25,41.29V824z M671.09,824.08v-87.87c0-7.99-2.88-14.87-8.64-20.64
		c-5.76-5.77-12.63-8.65-20.62-8.65c-7.99,0-14.86,2.88-20.62,8.65c-5.76,5.77-8.64,12.65-8.64,20.64v87.87
		c0,8.11,2.88,15.02,8.64,20.73c5.76,5.71,12.63,8.56,20.62,8.56c7.98,0,14.86-2.85,20.62-8.56
		C668.21,839.1,671.09,832.19,671.09,824.08z"/>
	<path d="M1177.84,677.83l-73.06,204.62h-58.52l-29.25-81.95l-29.26,81.95h-58.52l-52.28-146.11h-44.59c-8.11,0-15,2.85-20.7,8.57
		c-5.71,5.71-8.56,12.56-8.56,20.56v116.99h-58.35V677.83h58.35v58.52c4.3-36.87,21.96-56.31,52.97-58.34
		c1.8-0.12,3.65-0.18,5.54-0.18h45.45c5.23,0,9.83,3.45,11.3,8.47l40.13,137.64l29.94-103.05l-12.33-34.48
		c-1.49-4.18,1.6-8.58,6.05-8.58h45.95c2.85,0,5.37,1.88,6.16,4.62l41.25,141.49l39.14-134.74c1.96-6.74,8.13-11.37,15.15-11.37
		H1177.84z"/>
	<path d="M856.07,678.01"/>
	<path d="M1347.59,882.46h-116.86c-16.13,0-29.94-5.73-41.44-17.18c-11.5-11.45-17.24-25.22-17.24-41.29v-87.7
		c0-16.07,5.75-29.83,17.24-41.29c11.5-11.45,25.31-17.18,41.44-17.18h58.17c16.13,0,29.94,5.72,41.44,17.17
		c11.5,11.45,17.25,25.2,17.25,41.26v58.43h-116.86l-0.17,29.34c0,8.12,2.88,15.04,8.64,20.76c5.76,5.72,12.63,8.58,20.62,8.58
		h87.77V882.46z M1282.53,765.6c3.53,0,6.39-2.85,6.41-6.38l0.13-22.97c0-8.01-2.88-14.9-8.64-20.68
		c-5.76-5.78-12.63-8.67-20.62-8.67c-7.99,0-14.86,2.89-20.62,8.67c-5.76,5.78-8.64,12.67-8.64,20.68l0.13,22.97
		c0.02,3.53,2.89,6.38,6.41,6.38H1282.53z"/>
	<path d="M1598.66,706.92l-0.18,117.17c0,7.31,3,14.02,8.99,20.13c5.99,6.11,12.75,9.16,20.27,9.16h0.18
		c16.06,0,29.08,13.02,29.08,29.08l0,0h-58.34c-16.13,0-29.94-5.73-41.44-17.19c-11.49-11.46-17.24-25.24-17.24-41.32V706.92h-81.65
		c-19.74,0-29.6,8.21-29.6,24.64c0,7.41,7.58,15.28,22.75,23.61c23.62,12.89,37.7,21.21,42.26,24.98
		c15.17,12.21,22.75,26.75,22.75,43.63c0,16.2-5.64,30.03-16.94,41.49c-11.29,11.46-25.03,17.19-41.23,17.19h-87.78v-29.08h58.52
		c19.5,0,29.26-8.1,29.26-24.29c0-7.53-7.59-15.4-22.76-23.61c-23.72-13.01-37.8-21.33-42.25-24.99
		c-15.17-12.2-22.76-26.69-22.76-43.45c0-16.2,5.69-30.12,17.07-41.75c11.38-11.64,25.15-17.45,41.31-17.45h111.09l20.93-41.78
		c5.14-10.26,15.63-16.73,27.1-16.73h10.6v58.52H1657v29.08H1598.66z"/>
</g>
<g>
	<g>
		<path class="st0" d="M600.54,1024.97h24.34c12.46,0,21.03,6.91,21.03,18.99c0,12.27-8.47,19.47-21.71,19.47H605.9v29.7h-5.35
			V1024.97z M605.9,1058.56h18.79c11,0,15.58-5.84,15.58-14.41c0-9.15-6.04-14.31-15.19-14.31H605.9V1058.56z"/>
		<path class="st0" d="M678.05,1057.69c0-8.18-0.1-11.68-0.1-13.24h4.77c0.1,1.56,0.19,4.67,0.19,10.91
			c2.82-7.3,9.05-11.68,16.94-12.07v5.26c-10.13,0.68-16.94,7.69-16.94,19.28v25.32h-4.87V1057.69z"/>
		<path class="st0" d="M768.5,1068.69c0,13.53-7.5,25.61-22,25.61c-13.14,0-21.32-10.81-21.32-25.51c0-13.92,7.69-25.51,21.81-25.51
			C759.94,1043.28,768.5,1053.4,768.5,1068.69z M730.34,1068.79c0,11.59,6.23,20.93,16.55,20.93c10.52,0,16.45-8.67,16.45-20.93
			c0-11.49-5.84-20.93-16.65-20.93C735.6,1047.85,730.34,1057.1,730.34,1068.79z"/>
		<path class="st0" d="M800.05,1056.71c0-4.28,0-8.37-0.1-12.27h4.77c0.19,1.56,0.29,7.89,0.19,9.25
			c2.14-4.97,6.13-10.42,16.16-10.42c8.67,0,16.36,4.87,16.36,18.3v31.55h-4.87v-30.77c0-8.67-3.6-14.31-12.07-14.31
			c-11.59,0-15.58,9.64-15.58,20.25v24.83h-4.87V1056.71z"/>
		<path class="st0" d="M865.58,1044.44h9.06v-15.19h4.87v15.19h11.59v4.58h-11.59v31.64c0,5.45,1.17,8.57,5.84,8.57
			c1.46,0,3.51-0.1,5.06-0.58v4.28c-1.65,0.68-3.99,0.88-6.04,0.88c-6.23,0-9.74-3.12-9.74-10.91v-33.88h-9.06V1044.44z"/>
		<path class="st0" d="M959.93,1068.69c0,13.53-7.5,25.61-22,25.61c-13.14,0-21.32-10.81-21.32-25.51
			c0-13.92,7.69-25.51,21.81-25.51C951.37,1043.28,959.93,1053.4,959.93,1068.69z M921.77,1068.79c0,11.59,6.23,20.93,16.55,20.93
			c10.52,0,16.45-8.67,16.45-20.93c0-11.49-5.84-20.93-16.65-20.93C927.02,1047.85,921.77,1057.1,921.77,1068.79z"/>
		<path class="st0" d="M991.48,1079.69c1.66,6.33,6.13,10.13,13.83,10.13c8.67,0,12.17-3.99,12.17-9.44
			c0-5.55-2.34-8.28-13.24-10.91c-12.56-3.02-15.68-6.82-15.68-13.24c0-6.72,5.06-12.95,16.07-12.95s16.26,6.72,17.04,13.63h-4.87
			c-0.88-4.09-4.09-9.15-12.37-9.15c-8.47,0-10.9,4.19-10.9,8.08c0,4.48,2.34,6.72,11.98,9.05c13.73,3.31,17.14,7.79,17.14,15.09
			c0,8.86-7.21,14.31-17.43,14.31c-11.1,0-17.33-5.84-18.69-14.6H991.48z"/>
		<path class="st0" d="M1103.85,1085.92v26.68h-4.87v-56.18c0-3.99,0-8.28-0.1-11.98h4.77c0.19,1.85,0.19,4.77,0.19,8.76
			c3.02-5.84,8.37-9.93,17.14-9.93c11.49,0,19.47,9.64,19.47,24.24c0,17.53-9.35,26.78-21.13,26.78
			C1110.76,1094.29,1106.28,1090.5,1103.85,1085.92z M1135.3,1067.71c0-11.29-5.45-19.76-15.09-19.76
			c-11.78,0-16.65,7.4-16.65,20.64c0,13.05,3.8,21.13,15.97,21.13C1129.65,1089.72,1135.3,1081.15,1135.3,1067.71z"/>
		<path class="st0" d="M1205.5,1083.88c0,4.28,0.39,7.69,0.68,9.25h-4.67c-0.39-1.17-0.68-3.31-0.88-7.5
			c-1.66,3.6-5.94,8.67-15.97,8.67c-11.29,0-16.16-7.3-16.16-14.6c0-10.71,8.28-15.58,22.88-15.58c4.09,0,7.3,0,9.25,0v-4.96
			c0-4.87-1.46-11.39-12.56-11.39c-9.83,0-11.29,5.16-12.37,9.15h-4.87c0.58-5.35,3.89-13.63,17.33-13.63
			c11.1,0,17.33,4.67,17.33,15.38V1083.88z M1200.73,1068.3c-1.85,0-6.33,0-9.54,0c-10.81,0-17.53,2.82-17.53,11.2
			c0,6.13,4.38,10.32,11.2,10.32c13.92,0,15.87-9.25,15.87-19.77V1068.3z"/>
		<path class="st0" d="M1241.04,1057.69c0-8.18-0.1-11.68-0.1-13.24h4.77c0.1,1.56,0.19,4.67,0.19,10.91
			c2.82-7.3,9.05-11.68,16.94-12.07v5.26c-10.13,0.68-16.94,7.69-16.94,19.28v25.32h-4.87V1057.69z"/>
		<path class="st0" d="M1325.46,1083.88c0,4.28,0.39,7.69,0.68,9.25h-4.67c-0.39-1.17-0.68-3.31-0.88-7.5
			c-1.66,3.6-5.94,8.67-15.97,8.67c-11.29,0-16.16-7.3-16.16-14.6c0-10.71,8.28-15.58,22.88-15.58c4.09,0,7.3,0,9.25,0v-4.96
			c0-4.87-1.46-11.39-12.56-11.39c-9.83,0-11.29,5.16-12.37,9.15h-4.87c0.58-5.35,3.89-13.63,17.33-13.63
			c11.1,0,17.33,4.67,17.33,15.38V1083.88z M1320.69,1068.3c-1.85,0-6.33,0-9.54,0c-10.81,0-17.53,2.82-17.53,11.2
			c0,6.13,4.38,10.32,11.2,10.32c13.92,0,15.87-9.25,15.87-19.77V1068.3z"/>
		<path class="st0" d="M1404.53,1044.44c7.89,22.3,13.34,37.49,15.19,43.72h0.1c1.07-3.6,6.52-18.11,15.97-43.72h5.16l-18.4,48.68
			h-5.84l-17.33-48.68H1404.53z"/>
		<path class="st0" d="M1509.4,1068.69c0,13.53-7.5,25.61-22,25.61c-13.14,0-21.32-10.81-21.32-25.51
			c0-13.92,7.69-25.51,21.81-25.51C1500.83,1043.28,1509.4,1053.4,1509.4,1068.69z M1471.23,1068.79c0,11.59,6.23,20.93,16.55,20.93
			c10.52,0,16.46-8.67,16.46-20.93c0-11.49-5.84-20.93-16.65-20.93C1476.49,1047.85,1471.23,1057.1,1471.23,1068.79z"/>
		<path class="st0" d="M1574.34,1083.88c0,4.28,0.39,7.69,0.68,9.25h-4.67c-0.39-1.17-0.68-3.31-0.88-7.5
			c-1.66,3.6-5.94,8.67-15.97,8.67c-11.29,0-16.16-7.3-16.16-14.6c0-10.71,8.28-15.58,22.88-15.58c4.09,0,7.3,0,9.25,0v-4.96
			c0-4.87-1.46-11.39-12.56-11.39c-9.83,0-11.29,5.16-12.37,9.15h-4.87c0.58-5.35,3.89-13.63,17.33-13.63
			c11.1,0,17.33,4.67,17.33,15.38V1083.88z M1569.57,1068.3c-1.85,0-6.33,0-9.54,0c-10.81,0-17.53,2.82-17.53,11.2
			c0,6.13,4.38,10.32,11.2,10.32c13.92,0,15.87-9.25,15.87-19.77V1068.3z"/>
		<path class="st0" d="M1609.88,1057.69c0-8.18-0.1-11.68-0.1-13.24h4.77c0.1,1.56,0.2,4.67,0.2,10.91
			c2.82-7.3,9.05-11.68,16.94-12.07v5.26c-10.13,0.68-16.94,7.69-16.94,19.28v25.32h-4.87V1057.69z"/>
		<path class="st0" d="M1658.76,1093.13v-12.56h4.87v12.56H1658.76z"/>
	</g>
</g>
<circle class="st1" cx="2191.2" cy="965.45" r="379.66"/>
<g>
	<path class="st2" d="M2185.65,1466.92c-5.99-0.1-12.05-0.32-18.02-0.63l0.31-5.94c5.9,0.31,11.89,0.52,17.81,0.63L2185.65,1466.92z
		 M2203.68,1466.92l-0.11-5.94c5.92-0.11,11.91-0.32,17.81-0.64l0.32,5.94C2215.73,1466.59,2209.67,1466.81,2203.68,1466.92z
		 M2149.64,1465.01c-5.97-0.53-12-1.18-17.93-1.92l0.74-5.9c5.86,0.73,11.82,1.37,17.72,1.9L2149.64,1465.01z M2239.69,1464.98
		l-0.53-5.92c5.89-0.53,11.85-1.17,17.71-1.91l0.74,5.9C2251.68,1463.79,2245.65,1464.44,2239.69,1464.98z M2113.87,1460.53
		c-5.91-0.96-11.88-2.04-17.74-3.21l1.16-5.83c5.79,1.16,11.69,2.22,17.53,3.17L2113.87,1460.53z M2275.46,1460.47l-0.96-5.87
		c5.83-0.95,11.73-2.02,17.53-3.19l1.17,5.83C2287.33,1458.42,2281.36,1459.5,2275.46,1460.47z M2078.5,1453.47
		c-5.82-1.38-11.7-2.9-17.47-4.49l1.59-5.73c5.69,1.58,11.5,3.07,17.26,4.44L2078.5,1453.47z M2310.81,1453.38l-1.38-5.78
		c5.75-1.37,11.55-2.87,17.25-4.45l1.59,5.73C2322.51,1450.47,2316.63,1451.99,2310.81,1453.38z M2043.75,1443.85
		c-5.73-1.81-11.5-3.75-17.14-5.77l2-5.6c5.58,1.99,11.28,3.91,16.94,5.7L2043.75,1443.85z M2345.56,1443.74l-1.8-5.67
		c5.62-1.78,11.3-3.7,16.88-5.69l2,5.6C2357,1440,2351.25,1441.93,2345.56,1443.74z M2009.69,1431.7c-5.58-2.22-11.18-4.58-16.67-7
		l2.4-5.44c5.42,2.39,10.96,4.72,16.47,6.91L2009.69,1431.7z M2379.52,1431.6l-2.2-5.52c5.48-2.19,10.99-4.5,16.38-6.88l2.4,5.44
		C2390.64,1427.04,2385.06,1429.38,2379.52,1431.6z M1976.62,1417.11c-5.39-2.62-10.81-5.37-16.11-8.18l2.79-5.25
		c5.23,2.78,10.59,5.5,15.91,8.09L1976.62,1417.11z M2412.42,1417.07l-2.6-5.35c5.31-2.58,10.64-5.29,15.85-8.06l2.79,5.25
		C2423.18,1411.71,2417.79,1414.46,2412.42,1417.07z M2444.2,1400.18l-2.98-5.15c5.11-2.95,10.23-6.04,15.24-9.18l3.16,5.04
		C2454.55,1394.07,2449.36,1397.2,2444.2,1400.18z M1944.72,1400.17c-5.18-3-10.38-6.13-15.46-9.32l3.16-5.04
		c5.02,3.15,10.16,6.25,15.28,9.21L1944.72,1400.17z M2474.69,1381.04l-3.34-4.92c4.89-3.32,9.78-6.77,14.54-10.26l3.51,4.8
		C2484.59,1374.19,2479.64,1377.69,2474.69,1381.04z M1914.14,1380.97c-4.95-3.36-9.91-6.86-14.74-10.41l3.52-4.8
		c4.78,3.5,9.68,6.96,14.57,10.29L1914.14,1380.97z M2503.75,1359.75l-3.69-4.67c4.64-3.66,9.27-7.46,13.78-11.28l3.85,4.53
		C2513.13,1352.2,2508.44,1356.04,2503.75,1359.75z M1885.04,1359.63c-4.69-3.71-9.39-7.56-13.95-11.44l3.85-4.53
		c4.51,3.84,9.15,7.64,13.79,11.3L1885.04,1359.63z M2531.22,1336.41l-4.01-4.39c4.37-3.99,8.72-8.11,12.94-12.25l4.16,4.24
		C2540.04,1328.21,2535.64,1332.38,2531.22,1336.41z M1857.56,1336.26c-4.42-4.04-8.82-8.22-13.09-12.41l4.17-4.24
		c4.21,4.14,8.57,8.26,12.93,12.26L1857.56,1336.26z M2556.95,1311.16l-4.31-4.09c4.07-4.29,8.11-8.71,12.03-13.15l4.46,3.93
		C2565.16,1302.34,2561.06,1306.82,2556.95,1311.16z M1831.83,1310.99c-4.11-4.34-8.21-8.82-12.16-13.31l4.46-3.93
		c3.91,4.43,7.95,8.86,12.02,13.15L1831.83,1310.99z M2580.81,1284.11l-4.6-3.77c3.75-4.58,7.47-9.28,11.06-13.98l4.73,3.6
		C2588.38,1274.72,2584.61,1279.48,2580.81,1284.11z M1808,1283.95c-3.79-4.63-7.55-9.38-11.17-14.14l4.73-3.6
		c3.58,4.7,7.29,9.4,11.04,13.97L1808,1283.95z M2602.68,1255.41l-4.86-3.43c3.41-4.83,6.79-9.79,10.03-14.75l4.98,3.25
		C2609.55,1245.5,2606.14,1250.52,2602.68,1255.41z M1786.17,1255.29c-3.45-4.88-6.85-9.9-10.12-14.9l4.98-3.25
		c3.23,4.94,6.59,9.89,10,14.72L1786.17,1255.29z M2622.43,1225.2l-5.09-3.07c3.06-5.08,6.07-10.27,8.94-15.44l5.2,2.89
		C2628.58,1214.8,2625.53,1220.06,2622.43,1225.2z M1766.48,1225.14c-3.09-5.12-6.12-10.36-9.02-15.58l5.2-2.89
		c2.86,5.16,5.86,10.34,8.91,15.39L1766.48,1225.14z M1749.01,1193.67c-2.71-5.32-5.35-10.77-7.87-16.18l5.39-2.5
		c2.48,5.35,5.1,10.73,7.77,15.99L1749.01,1193.67z M2639.96,1193.62l-5.3-2.7c2.69-5.28,5.31-10.69,7.8-16.06l5.39,2.5
		C2645.34,1182.8,2642.68,1188.27,2639.96,1193.62z M1733.87,1161.04c-2.31-5.5-4.56-11.12-6.67-16.69l5.56-2.11
		c2.09,5.51,4.3,11.06,6.59,16.5L1733.87,1161.04z M2655.16,1160.83l-5.48-2.3c2.3-5.46,4.52-11.05,6.62-16.59l5.56,2.1
		C2659.74,1149.65,2657.48,1155.3,2655.16,1160.83z M1721.13,1127.37c-1.91-5.67-3.75-11.45-5.46-17.19l5.7-1.7
		c1.69,5.67,3.5,11.38,5.39,16.98L1721.13,1127.37z M2667.94,1127l-5.64-1.9c1.89-5.61,3.7-11.32,5.38-16.99l5.7,1.69
		C2671.68,1115.54,2669.85,1121.33,2667.94,1127z M1710.84,1092.81c-1.5-5.79-2.91-11.69-4.19-17.54l5.81-1.28
		c1.27,5.77,2.66,11.6,4.14,17.33L1710.84,1092.81z M2678.2,1092.43l-5.76-1.48c1.47-5.72,2.86-11.55,4.13-17.33l5.81,1.27
		C2681.09,1080.74,2679.69,1086.64,2678.2,1092.43z M1703.1,1057.59c-1.07-5.88-2.05-11.87-2.91-17.8l5.88-0.85
		c0.85,5.85,1.82,11.77,2.87,17.58L1703.1,1057.59z M2685.91,1057.21l-5.85-1.06c1.05-5.81,2.02-11.73,2.86-17.59l5.89,0.85
		C2687.95,1045.34,2686.98,1051.32,2685.91,1057.21z M1697.93,1021.9c-0.64-5.94-1.19-11.98-1.62-17.96l5.93-0.43
		c0.43,5.91,0.96,11.88,1.6,17.74L1697.93,1021.9z M2691.06,1021.52l-5.91-0.64c0.63-5.88,1.17-11.85,1.59-17.75l5.93,0.42
		C2692.24,1009.53,2691.7,1015.57,2691.06,1021.52z M1695.33,985.94c-0.22-5.97-0.33-12.04-0.33-18.03l5.95,0
		c0,5.92,0.12,11.92,0.33,17.82L1695.33,985.94z M2693.62,985.56l-5.94-0.21c0.21-5.9,0.32-11.89,0.32-17.82l0-0.75l5.95-0.01
		l0,0.76C2693.94,973.52,2693.83,979.59,2693.62,985.56z M1701.25,950.09l-5.94-0.21c0.21-5.99,0.53-12.04,0.95-18.01l5.93,0.42
		C1701.77,938.19,1701.45,944.18,1701.25,950.09z M2687.65,948.96c-0.22-5.91-0.55-11.9-0.98-17.79l5.93-0.43
		c0.43,5.97,0.77,12.02,0.99,18.01L2687.65,948.96z M1703.76,914.55l-5.91-0.63c0.64-5.96,1.39-11.98,2.24-17.89l5.89,0.84
		C1705.13,902.72,1704.38,908.67,1703.76,914.55z M2685.06,913.42c-0.64-5.88-1.4-11.82-2.25-17.67l5.88-0.86
		c0.86,5.92,1.63,11.94,2.28,17.89L2685.06,913.42z M1708.81,879.28l-5.85-1.06c1.06-5.89,2.25-11.84,3.52-17.68l5.81,1.27
		C1711.04,867.59,1709.86,873.46,1708.81,879.28z M2679.93,878.17c-1.06-5.81-2.25-11.69-3.52-17.47l5.81-1.28
		c1.29,5.84,2.49,11.79,3.57,17.68L2679.93,878.17z M1716.41,844.47l-5.76-1.48c1.49-5.8,3.1-11.65,4.8-17.38l5.7,1.69
		C1719.48,832.97,1717.88,838.75,1716.41,844.47z M2672.25,843.38c-1.48-5.72-3.09-11.5-4.78-17.16l5.7-1.7
		c1.71,5.74,3.34,11.58,4.84,17.37L2672.25,843.38z M1726.52,810.31l-5.64-1.89c1.91-5.69,3.95-11.42,6.07-17.04l5.56,2.1
		C1730.42,799.02,1728.41,804.68,1726.52,810.31z M2662.06,809.24c-1.9-5.6-3.92-11.24-6.02-16.77l5.56-2.11
		c2.12,5.59,4.17,11.3,6.09,16.97L2662.06,809.24z M1739.12,776.88l-5.48-2.3c2.32-5.53,4.77-11.09,7.29-16.54l5.4,2.5
		C1743.83,765.92,1741.41,771.42,1739.12,776.88z M2649.44,775.98c-2.29-5.43-4.71-10.9-7.2-16.25l5.39-2.51
		c2.52,5.41,4.97,10.95,7.28,16.44L2649.44,775.98z M1754.11,744.47l-5.3-2.69c2.71-5.34,5.56-10.71,8.47-15.96l5.2,2.88
		C1759.6,733.89,1756.79,739.19,1754.11,744.47z M2634.46,743.75c-2.67-5.25-5.48-10.53-8.36-15.69l5.2-2.89
		c2.91,5.23,5.75,10.57,8.46,15.88L2634.46,743.75z M1771.4,713.26l-5.09-3.07c3.09-5.13,6.32-10.28,9.59-15.3l4.98,3.25
		C1777.65,703.1,1774.46,708.18,1771.4,713.26z M2617.18,712.67c-3.05-5.05-6.24-10.11-9.47-15.06l4.98-3.26
		c3.28,5,6.5,10.13,9.59,15.24L2617.18,712.67z M1790.9,683.39l-4.86-3.43c3.45-4.89,7.04-9.79,10.67-14.56l4.73,3.6
		C1797.86,673.71,1794.31,678.55,1790.9,683.39z M2597.69,682.89c-3.41-4.82-6.95-9.64-10.54-14.35l4.73-3.61
		c3.63,4.76,7.22,9.64,10.66,14.52L2597.69,682.89z M1812.49,655.01l-4.6-3.77c3.79-4.63,7.72-9.26,11.68-13.75l4.46,3.93
		C1820.12,645.86,1816.24,650.43,1812.49,655.01z M2576.11,654.58c-3.75-4.56-7.63-9.13-11.55-13.56l4.46-3.94
		c3.96,4.49,7.89,9.1,11.68,13.72L2576.11,654.58z M1836.05,628.26l-4.32-4.09c4.11-4.34,8.36-8.67,12.63-12.87l4.17,4.24
		C1844.31,619.69,1840.11,623.97,1836.05,628.26z M2552.53,627.88c-4.07-4.29-8.28-8.57-12.49-12.7l4.16-4.24
		c4.27,4.19,8.52,8.51,12.64,12.85L2552.53,627.88z M1861.46,603.29l-4.01-4.39c4.41-4.04,8.96-8.05,13.52-11.93l3.85,4.53
		C1870.31,595.33,1865.82,599.3,1861.46,603.29z M2527.1,602.93c-4.36-3.98-8.86-7.95-13.38-11.78l3.85-4.53
		c4.57,3.88,9.12,7.89,13.54,11.92L2527.1,602.93z M1888.58,580.21l-3.69-4.66c4.69-3.71,9.51-7.38,14.33-10.92l3.52,4.79
		C1897.98,572.91,1893.22,576.54,1888.58,580.21z M2499.92,579.86c-4.64-3.66-9.42-7.29-14.19-10.79l3.51-4.8
		c4.83,3.54,9.67,7.21,14.36,10.92L2499.92,579.86z M1917.28,559.14l-3.34-4.92c4.94-3.36,10.01-6.68,15.07-9.86l3.16,5.03
		C1927.17,552.54,1922.16,555.82,1917.28,559.14z M2471.15,558.8c-4.9-3.32-9.93-6.6-14.94-9.74l3.16-5.04
		c5.07,3.18,10.16,6.5,15.12,9.86L2471.15,558.8z M1947.4,540.21l-2.98-5.14c5.17-2.99,10.46-5.94,15.73-8.74l2.79,5.25
		C1957.74,534.34,1952.51,537.25,1947.4,540.21z M2440.92,539.85c-5.13-2.96-10.38-5.87-15.61-8.64l2.78-5.25
		c5.3,2.81,10.61,5.75,15.8,8.75L2440.92,539.85z M1978.79,523.5l-2.6-5.35c5.37-2.61,10.86-5.16,16.31-7.58l2.41,5.44
		C1989.52,518.4,1984.09,520.92,1978.79,523.5z M2409.39,523.13c-5.33-2.58-10.78-5.1-16.21-7.49l2.4-5.44
		c5.49,2.42,11.01,4.97,16.4,7.58L2409.39,523.13z M2011.28,509.12l-2.21-5.52c5.56-2.22,11.23-4.37,16.86-6.39l2.01,5.6
		C2022.38,504.8,2016.77,506.93,2011.28,509.12z M2376.71,508.74c-5.51-2.19-11.14-4.31-16.72-6.3l1.99-5.6
		c5.65,2.01,11.35,4.16,16.92,6.37L2376.71,508.74z M2044.82,497.1l-1.8-5.67c5.7-1.81,11.51-3.54,17.28-5.15l1.59,5.73
		C2056.2,493.6,2050.45,495.31,2044.82,497.1z M2343.04,496.76c-5.64-1.78-11.39-3.48-17.09-5.05l1.58-5.73
		c5.77,1.59,11.59,3.31,17.29,5.11L2343.04,496.76z M2079.14,487.55l-1.38-5.78c5.82-1.39,11.74-2.7,17.61-3.88l1.17,5.83
		C2090.74,484.89,2084.89,486.18,2079.14,487.55z M2308.7,487.29c-5.75-1.36-11.61-2.64-17.41-3.79l1.16-5.83
		c5.87,1.17,11.8,2.46,17.62,3.84L2308.7,487.29z M2114.07,480.52l-0.96-5.87c5.9-0.97,11.91-1.84,17.84-2.59l0.75,5.9
		C2125.84,478.7,2119.9,479.57,2114.07,480.52z M2273.75,480.34c-5.83-0.94-11.77-1.79-17.64-2.52l0.74-5.9
		c5.94,0.74,11.95,1.6,17.85,2.55L2273.75,480.34z M2149.41,476.03l-0.54-5.92c5.95-0.54,12-0.98,17.98-1.3l0.32,5.94
		C2161.27,475.07,2155.29,475.5,2149.41,476.03z M2238.4,475.93c-5.88-0.52-11.86-0.94-17.77-1.25l0.31-5.94
		c5.99,0.31,12.04,0.74,17.99,1.26L2238.4,475.93z M2185,474.09l-0.11-5.94c5.95-0.11,12.03-0.12,18.03-0.02l-0.1,5.95
		C2196.89,473.98,2190.87,473.98,2185,474.09z"/>
</g>
<polygon class="st3" points="2219.47,694.25 2250.15,643.37 2261.65,701.67 2299.91,656.21 2302.15,715.59 2347.05,676.68 
	2339.97,735.67 2390.41,704.27 2374.18,761.43 2428.91,738.3 2403.95,792.22 2461.62,777.93 2428.53,827.28 2487.73,822.2 
	2447.32,865.76 2506.59,870 2459.87,906.71 2517.74,920.17 2465.85,949.11 2520.9,971.46 2465.13,991.93 2516,1022.62 
	2457.71,1034.11 2503.16,1072.37 2443.79,1074.61 2482.7,1119.51 2423.71,1112.43 2455.11,1162.87 2397.95,1146.65 2421.08,1201.38 
	2367.16,1176.41 2381.44,1234.08 2332.1,1200.99 2337.18,1260.19 2293.62,1219.79 2289.38,1279.05 2252.67,1232.33 2239.21,1290.2 
	2210.27,1238.31 2187.92,1293.37 2167.45,1237.59 2136.76,1288.47 2125.27,1230.17 2087,1275.63 2084.77,1216.25 2039.87,1255.16 
	2046.95,1196.17 1996.51,1227.57 2012.73,1170.42 1958,1193.54 1982.97,1139.63 1925.29,1153.91 1958.39,1104.56 1899.19,1109.64 
	1939.59,1066.08 1880.33,1061.84 1927.05,1025.13 1869.18,1011.67 1921.07,982.73 1866.01,960.38 1921.79,939.91 1870.91,909.23 
	1929.2,897.73 1883.75,859.47 1943.12,857.23 1904.22,812.33 1963.21,819.41 1931.8,768.97 1988.96,785.2 1965.84,730.47 
	2019.75,755.43 2005.47,697.76 2054.82,730.85 2049.74,671.65 2093.3,712.05 2097.54,652.79 2134.25,699.51 2147.7,641.64 
	2176.65,693.53 2199,638.48 "/>
<circle class="st4" cx="2193.58" cy="966.04" r="390.36"/>
<circle class="st5" cx="2193.58" cy="966.04" r="360.03"/>
<polygon class="st6" points="1794.67,558.47 2066.84,904.02 2115.56,891.02 2140.58,835.23 "/>
<polygon class="st6" points="2577.45,1357.74 2305.28,1012.19 2256.56,1025.19 2231.54,1080.98 "/>
<polygon class="st6" points="2593.73,559.77 2493.56,684.98 2317.34,905.23 2316.98,905.68 2261.18,880.66 2248.18,831.94 "/>
<polygon class="st6" points="1788.03,1358.83 2133.58,1086.66 2120.58,1037.94 2064.79,1012.92 "/>
<polygon class="st1" points="1801.62,565.51 2140.58,835.23 2118.25,886.37 "/>
<polygon class="st1" points="2570.83,1351.03 2231.87,1081.32 2254.2,1030.17 "/>
<polygon class="st1" points="2587.53,565.56 2493.56,684.98 2317.34,905.23 2266.67,882.2 "/>
<polygon class="st1" points="1794.23,1353.04 1888.2,1233.62 2064.42,1013.38 2115.09,1036.41 "/>
<path class="st7" d="M2193.88,726.12c-131.03,0-237.25,106.22-237.25,237.25s106.22,237.25,237.25,237.25
	c131.03,0,237.25-106.22,237.25-237.25S2324.9,726.12,2193.88,726.12z M2193.88,1144.59c-100.09,0-181.22-81.13-181.22-181.22
	s81.13-181.22,181.22-181.22s181.22,81.13,181.22,181.22S2293.96,1144.59,2193.88,1144.59z"/>
<polygon class="st8" points="2198.04,254 2136.2,805.8 2191.5,837.31 2263.45,809.36 "/>
<polygon class="st8" points="2192.69,1666.19 2254.53,1114.4 2199.23,1082.88 2127.28,1110.83 "/>
<polygon class="st8" points="2914.84,963.66 2713.82,987.34 2360.2,1028.99 2359.47,1029.07 2331.53,957.12 2363.04,901.82 "/>
<polygon class="st8" points="1482.43,967.23 2034.22,1029.07 2065.74,973.77 2037.79,901.82 "/>
<polygon class="st1" points="2198.04,266.49 2263.45,809.36 2198.04,835.53 "/>
<polygon class="st1" points="2192.69,1654.3 2127.28,1111.42 2192.69,1085.26 "/>
<polygon class="st1" points="2904.13,963.37 2713.82,987.34 2360.2,1028.99 2335.1,963.37 "/>
<polygon class="st1" points="1493.13,967.53 1683.45,943.55 2037.07,901.91 2062.17,967.53 "/>
<path class="st1" d="M2320.87,839.47c67.62,69.59,67.01,180.82-1.83,249.66l-0.26,0.26l-123.91-123.91L2320.87,839.47z"/>
<path class="st1" d="M2067.26,837.87l127.6,127.6l-125.48,125.48c-0.62-0.6-1.24-1.21-1.86-1.83
	C1998.16,1019.76,1998.07,907.35,2067.26,837.87z"/>
<path class="st3" d="M2069.38,1090.96l125.48-125.48l123.91,123.91C2249.92,1157.96,2138.89,1158.49,2069.38,1090.96z"/>
<path class="st3" d="M2319.04,837.61c0.62,0.62,1.23,1.24,1.83,1.86l-126.01,126.01l-127.6-127.6l0.26-0.26
	C2136.98,768.15,2249.59,768.15,2319.04,837.61z"/>
<path class="st1" d="M2292.55,1064.6c-54.67,53.12-142.04,52.64-196.12-1.44l-0.21-0.21l97.34-97.34L2292.55,1064.6z"/>
<path class="st1" d="M2293.8,865.37l-100.24,100.24l-98.57-98.57c0.47-0.49,0.95-0.98,1.44-1.46
	C2150.92,811.09,2239.22,811.02,2293.8,865.37z"/>
<path class="st3" d="M2294.01,1063.16c-0.48,0.48-0.97,0.97-1.46,1.44l-98.99-98.99l100.24-100.24l0.21,0.21
	C2348.57,920.14,2348.57,1008.6,2294.01,1063.16z"/>
<path class="st3" d="M2093.05,1063.16c0.48,0.48,0.97,0.97,1.46,1.44l98.99-98.99l-100.24-100.24l-0.21,0.21
	C2038.49,920.14,2038.49,1008.6,2093.05,1063.16z"/>
<circle class="st9" cx="2194.17" cy="965.45" r="183.14"/>
<path class="st10" d="M2193.88,811.74c-83.74,0-151.63,67.88-151.63,151.62s67.88,151.62,151.63,151.62
	c83.74,0,151.62-67.88,151.62-151.62S2277.62,811.74,2193.88,811.74z M2193.88,1092.73c-71.44,0-129.37-57.92-129.37-129.37
	S2122.43,834,2193.88,834c71.44,0,129.37,57.92,129.37,129.37S2265.32,1092.73,2193.88,1092.73z"/>
</svg>
